# xmcd
#
# Track frame offsets:
#	150
#	17758
#	31096
#	63623
#	82930
#	103718
#	124038
#	137672
#	178353
#	208259
#	212973
#
# Disc length: 3117 seconds
#
# Revision: 1
# Processed by: cddbd v1.5.2PL0 Copyright (c) Steve Scherf et al.
# Submitted via: audiograbber 1.83.01
#
DISCID=9f0c2b0b
DTITLE=Cravin' Dogs - Roadtrip
DYEAR=2003
DGENRE=Country
TTITLE0=Roadtrip
TTITLE1=Resign
TTITLE2=Macy's Tune
TTITLE3=Civil War
TTITLE4=Dismal Swamp Trail
TTITLE5=You Know I'm Here
TTITLE6=World Music
TTITLE7=Driving Free
TTITLE8=Daylight Savings
TTITLE9=Miss Clare Mulligan
TTITLE10=Sheltering Sky
EXTD=
EXTT0=
EXTT1=
EXTT2=
EXTT3=
EXTT4=
EXTT5=
EXTT6=
EXTT7=
EXTT8=
EXTT9=
EXTT10=
PLAYORDER=
